<?xml version="1.0" encoding="utf-8"?>
<!-- Generator: Adobe Illustrator 19.1.0, SVG Export Plug-In . SVG Version: 6.00 Build 0)  -->
<svg version="1.1" id="Layer_1" xmlns="http://www.w3.org/2000/svg" xmlns:xlink="http://www.w3.org/1999/xlink" x="0px" y="0px"
	 viewBox="0 0 1000 300" style="enable-background:new 0 0 1000 300;" xml:space="preserve">
<style type="text/css">
	.st0{fill:#E4F2FB;}
	.st1{fill:#FFFFFF;}
</style>
<rect x="-0.6" class="st0" width="405.5" height="300"/>
<rect x="416" class="st0" width="185.6" height="144"/>
<rect x="416" y="156" class="st0" width="185.6" height="144"/>
<rect x="615.2" class="st0" width="185.6" height="144"/>
<rect x="615.2" y="156" class="st0" width="185.6" height="144"/>
<rect x="814.4" class="st0" width="185.6" height="144"/>
<rect x="814.4" y="156" class="st0" width="185.6" height="144"/>
<path class="st1" d="M231.6,150l26.3-26.3c8.1-8.1,8.1-21.3,0-29.5h0c-8.1-8.1-21.3-8.1-29.5,0l-26.3,26.3l-26.3-26.3
	c-8.1-8.1-21.3-8.1-29.5,0h0c-8.1,8.1-8.1,21.3,0,29.5l26.3,26.3l-26.3,26.3c-8.1,8.1-8.1,21.3,0,29.5l0,0c8.1,8.1,21.3,8.1,29.5,0
	l26.3-26.3l26.3,26.3c8.1,8.1,21.3,8.1,29.5,0l0,0c8.1-8.1,8.1-21.3,0-29.5L231.6,150z"/>
<path class="st1" d="M520.8,72l10.7-10.7c3.3-3.3,3.3-8.7,0-12l0,0c-3.3-3.3-8.7-3.3-12,0L508.8,60l-10.7-10.7
	c-3.3-3.3-8.7-3.3-12,0l0,0c-3.3,3.3-3.3,8.7,0,12L496.8,72l-10.7,10.7c-3.3,3.3-3.3,8.7,0,12v0c3.3,3.3,8.7,3.3,12,0L508.8,84
	l10.7,10.7c3.3,3.3,8.7,3.3,12,0v0c3.3-3.3,3.3-8.7,0-12L520.8,72z"/>
<path class="st1" d="M520.8,228l10.7-10.7c3.3-3.3,3.3-8.7,0-12l0,0c-3.3-3.3-8.7-3.3-12,0L508.8,216l-10.7-10.7
	c-3.3-3.3-8.7-3.3-12,0l0,0c-3.3,3.3-3.3,8.7,0,12l10.7,10.7l-10.7,10.7c-3.3,3.3-3.3,8.7,0,12v0c3.3,3.3,8.7,3.3,12,0l10.7-10.7
	l10.7,10.7c3.3,3.3,8.7,3.3,12,0v0c3.3-3.3,3.3-8.7,0-12L520.8,228z"/>
<path class="st1" d="M720,72l10.7-10.7c3.3-3.3,3.3-8.7,0-12l0,0c-3.3-3.3-8.7-3.3-12,0L708,60l-10.7-10.7c-3.3-3.3-8.7-3.3-12,0
	l0,0c-3.3,3.3-3.3,8.7,0,12L696,72l-10.7,10.7c-3.3,3.3-3.3,8.7,0,12v0c3.3,3.3,8.7,3.3,12,0L708,84l10.7,10.7c3.3,3.3,8.7,3.3,12,0
	v0c3.3-3.3,3.3-8.7,0-12L720,72z"/>
<path class="st1" d="M720,228l10.7-10.7c3.3-3.3,3.3-8.7,0-12l0,0c-3.3-3.3-8.7-3.3-12,0L708,216l-10.7-10.7c-3.3-3.3-8.7-3.3-12,0
	l0,0c-3.3,3.3-3.3,8.7,0,12L696,228l-10.7,10.7c-3.3,3.3-3.3,8.7,0,12v0c3.3,3.3,8.7,3.3,12,0L708,240l10.7,10.7
	c3.3,3.3,8.7,3.3,12,0v0c3.3-3.3,3.3-8.7,0-12L720,228z"/>
<path class="st1" d="M919.2,72l10.7-10.7c3.3-3.3,3.3-8.7,0-12l0,0c-3.3-3.3-8.7-3.3-12,0L907.2,60l-10.7-10.7
	c-3.3-3.3-8.7-3.3-12,0l0,0c-3.3,3.3-3.3,8.7,0,12L895.2,72l-10.7,10.7c-3.3,3.3-3.3,8.7,0,12v0c3.3,3.3,8.7,3.3,12,0L907.2,84
	l10.7,10.7c3.3,3.3,8.7,3.3,12,0v0c3.3-3.3,3.3-8.7,0-12L919.2,72z"/>
<path class="st1" d="M919.2,228l10.7-10.7c3.3-3.3,3.3-8.7,0-12l0,0c-3.3-3.3-8.7-3.3-12,0L907.2,216l-10.7-10.7
	c-3.3-3.3-8.7-3.3-12,0l0,0c-3.3,3.3-3.3,8.7,0,12l10.7,10.7l-10.7,10.7c-3.3,3.3-3.3,8.7,0,12v0c3.3,3.3,8.7,3.3,12,0l10.7-10.7
	l10.7,10.7c3.3,3.3,8.7,3.3,12,0v0c3.3-3.3,3.3-8.7,0-12L919.2,228z"/>
</svg>
